<svg id="Layer_1" enable-background="new 0 0 256 256" height="512" viewBox="0 0 256 256" width="512" xmlns="http://www.w3.org/2000/svg"><path d="m128 180.561c14.515 0 26.281 10.295 26.281 22.995s-11.767 22.995-26.281 22.995c36.286 0 65.701-10.295 65.701-22.995s-29.415-22.995-65.701-22.995z" fill="#419b46"/><path d="m101.719 203.556c0-12.7 11.767-22.995 26.281-22.995-36.286 0-65.701 10.295-65.701 22.995s29.415 22.995 65.701 22.995c-14.515 0-26.281-10.295-26.281-22.995z" fill="#a4d4a0"/><ellipse cx="128" cy="203.556" fill="#65bc49" rx="26.281" ry="22.995"/><path d="m128 229.552c-17.878 0-34.729-2.452-47.449-6.904-13.705-4.797-21.252-11.577-21.252-19.092s7.547-14.295 21.252-19.092c12.72-4.451 29.571-6.903 47.449-6.903s34.729 2.452 47.448 6.903c13.705 4.797 21.253 11.577 21.253 19.092s-7.548 14.295-21.253 19.092c-12.719 4.452-29.57 6.904-47.448 6.904zm0-45.991c-36.95 0-62.701 10.538-62.701 19.995 0 9.458 25.75 19.996 62.701 19.996s62.701-10.538 62.701-19.996c0-9.457-25.75-19.995-62.701-19.995z" fill="#1c2d6b"/><path d="m101.721 95.449c0-35.956 11.451-65.177 25.694-65.963-.001-.007-.003-.015-.004-.022-36.178.318-65.411 29.732-65.411 65.985 0 13.903 4.321 26.786 11.662 37.422l54.34 73.848-21.637-73.847c-2.924-10.637-4.644-23.52-4.644-37.423z" fill="#ef7f72"/><path d="m194 95.449c0-36.303-29.314-65.752-65.561-65.989-.001.005-.002.011-.003.016 14.313.586 25.845 29.889 25.845 65.973 0 13.482-1.617 26.005-4.38 36.452l.007.006-21.855 74.883.039.053 54.925-74.936-.017-.006c6.939-10.448 11-22.97 11-36.452z" fill="#e8383b"/><path d="m149.902 131.901c2.763-10.447 4.38-22.97 4.38-36.452 0-36.45-11.766-66-26.28-66s-26.28 29.55-26.28 66c0 13.903 1.72 26.786 4.644 37.423l21.637 73.847.052.071 21.855-74.883z" fill="#e95947"/><path d="m128.038 206.843.015-.054-.052-.07z" fill="#e95947"/><path d="m128.092 209.843c-.954 0-1.851-.453-2.417-1.222l-54.431-73.972c-.018-.024-.035-.05-.053-.074-7.975-11.557-12.191-25.088-12.191-39.127 0-38.047 30.953-69 69-69s69 30.953 69 69c0 13.496-3.914 26.573-11.32 37.84-.07.136-.151.267-.242.392l-54.926 74.937c-.564.771-1.462 1.226-2.417 1.227-.001-.001-.002-.001-.003-.001zm-51.987-78.713 51.982 70.645 52.32-71.382c.03-.052.062-.103.095-.152 6.868-10.342 10.498-22.373 10.498-34.793 0-34.738-28.262-63-63-63s-63 28.262-63 63c0 12.802 3.84 25.139 11.105 35.682z" fill="#1c2d6b"/><path d="m108.29 95.15c0-25.4 8.825-45.991 19.71-45.991-25.4 0-45.991 20.591-45.991 45.991s20.591 45.991 45.991 45.991c-10.886-.001-19.71-20.592-19.71-45.991z" fill="#ede49d"/><path d="m128 49.159c10.886 0 19.71 20.591 19.71 45.991s-8.825 45.991-19.71 45.991c25.4 0 45.991-20.591 45.991-45.991s-20.591-45.991-45.991-45.991z" fill="#d3ba2a"/><ellipse cx="128" cy="95.15" fill="#eee045" rx="19.71" ry="45.991"/><path d="m128 144.141c-27.014 0-48.991-21.978-48.991-48.991s21.977-48.99 48.991-48.99 48.99 21.977 48.99 48.99-21.976 48.991-48.99 48.991zm0-91.982c-23.705 0-42.991 19.285-42.991 42.99s19.286 42.991 42.991 42.991 42.99-19.286 42.99-42.991-19.285-42.99-42.99-42.99z" fill="#1c2d6b"/></svg>