<?xml version="1.0" encoding="iso-8859-1"?>
<!-- Generator: Adobe Illustrator 19.0.0, SVG Export Plug-In . SVG Version: 6.00 Build 0)  -->
<svg version="1.1" id="Capa_1" xmlns="http://www.w3.org/2000/svg" xmlns:xlink="http://www.w3.org/1999/xlink" x="0px" y="0px"
	 viewBox="0 0 512 512" style="enable-background:new 0 0 512 512;" xml:space="preserve">
<g>
	<path style="fill:#95A5A5;" d="M68.267,362.667c-4.713,0-8.533-3.82-8.533-8.533v-230.4c0-4.713,3.821-8.533,8.533-8.533
		c4.713,0,8.533,3.821,8.533,8.533v230.4C76.8,358.846,72.98,362.667,68.267,362.667z"/>
	<g>
		<path style="fill:#2C3E50;" d="M213.333,422.4h51.2v59.733c0,9.426-7.641,17.067-17.067,17.067H230.4
			c-9.426,0-17.067-7.641-17.067-17.067V422.4z"/>
		<path style="fill:#2C3E50;" d="M409.6,422.4h51.2v59.733c0,9.426-7.641,17.067-17.067,17.067h-17.067
			c-9.426,0-17.067-7.641-17.067-17.067V422.4z"/>
	</g>
	<path style="fill:#CC4B4C;" d="M473.173,4.267H200.96c-17.761,1.121-31.29,16.365-30.293,34.133v349.867l20.199,46.418
		c1.11,2.814,3.791,4.695,6.814,4.782h278.774c3.023-0.087,5.704-1.968,6.814-4.782l20.199-46.418V38.4
		C504.463,20.631,490.935,5.388,473.173,4.267z"/>
	<path style="fill:#C03A2B;" d="M503.467,388.267l-20.198,46.418c-1.11,2.814-3.791,4.695-6.814,4.782H197.68
		c-3.024-0.087-5.704-1.968-6.814-4.782l-20.199-46.418H503.467z"/>
	<path style="fill:#E57E25;" d="M221.867,38.4h230.4c9.426,0,17.067,7.641,17.067,17.067V64c0,9.426-7.641,17.067-17.067,17.067
		h-230.4c-9.426,0-17.067-7.641-17.067-17.067v-8.533C204.8,46.041,212.441,38.4,221.867,38.4z"/>
	<g>
		<circle style="fill:#F0C419;" cx="230.4" cy="328.533" r="25.6"/>
		<circle style="fill:#F0C419;" cx="443.733" cy="328.533" r="25.6"/>
	</g>
	<path style="fill:#67B9CC;" d="M221.867,115.2h230.4c9.426,0,17.067,7.641,17.067,17.067v119.467
		c0,9.426-7.641,17.067-17.067,17.067h-230.4c-9.426,0-17.067-7.641-17.067-17.067V132.267
		C204.8,122.841,212.441,115.2,221.867,115.2z"/>
	<path style="fill:#802F34;" d="M307.2,345.6h59.733c9.426,0,17.067,7.641,17.067,17.067v25.6h-93.867v-25.6
		C290.133,353.241,297.774,345.6,307.2,345.6z"/>
	<circle style="fill:#CC4B4C;" cx="68.267" cy="98.133" r="59.733"/>
	<path style="fill:#7F8C8D;" d="M59.733,320H76.8c9.426,0,17.067,7.641,17.067,17.067V499.2h-51.2V337.067
		C42.667,327.641,50.308,320,59.733,320z"/>
	<path style="fill:#BDC3C7;" d="M503.467,507.733H8.533C3.821,507.733,0,503.913,0,499.2c0-4.713,3.821-8.533,8.533-8.533h494.933
		c4.713,0,8.533,3.821,8.533,8.533C512,503.913,508.18,507.733,503.467,507.733z"/>
</g>
<g>
</g>
<g>
</g>
<g>
</g>
<g>
</g>
<g>
</g>
<g>
</g>
<g>
</g>
<g>
</g>
<g>
</g>
<g>
</g>
<g>
</g>
<g>
</g>
<g>
</g>
<g>
</g>
<g>
</g>
</svg>
