<?xml version="1.0" encoding="iso-8859-1"?>
<!-- Generator: Adobe Illustrator 19.0.0, SVG Export Plug-In . SVG Version: 6.00 Build 0)  -->
<svg version="1.1" id="Capa_1" xmlns="http://www.w3.org/2000/svg" xmlns:xlink="http://www.w3.org/1999/xlink" x="0px" y="0px"
	 viewBox="0 0 512.001 512.001" style="enable-background:new 0 0 512.001 512.001;" xml:space="preserve">
<path style="fill:#2BB4F3;" d="M455.903,416.482H309.686v-47.428c0-30.091,24.394-54.485,54.485-54.485h37.246
	c30.091,0,54.485,24.394,54.485,54.485L455.903,416.482L455.903,416.482z"/>
<path style="fill:#1687C4;" d="M401.418,314.569h-18.674c27.603,0,49.98,22.377,49.98,49.98v51.933h23.179v-47.429
	C455.903,338.963,431.509,314.569,401.418,314.569z"/>
<path style="fill:#F2A077;" d="M382.795,346.214L382.795,346.214c-16.683,0-30.208-13.525-30.208-30.208v-56.548h60.416v56.548
	C413.003,332.689,399.478,346.214,382.795,346.214z"/>
<path style="fill:#FFCCAA;" d="M471.124,170.462v63.456c0,19.299-7.819,36.777-20.467,49.415
	c-12.648,12.658-30.126,20.477-49.425,20.477c-38.607,0-69.902-31.294-69.902-69.892v-1.032h-12.833
	c-6.329,0-11.46-5.121-11.46-11.45v-7.4c0-4.674,2.795-8.685,6.806-10.467h7.79c2.317,0,4.557-0.341,6.67-0.993
	c1.042-0.312,2.055-0.701,3.028-1.168c7.799-3.642,13.194-11.558,13.194-20.73v-3.982c0-3.447,2.785-6.232,6.232-6.232h120.367
	V170.462z"/>
<path style="fill:#F2A077;" d="M449.662,170.462v63.456c0,19.299-7.819,36.777-20.467,49.415
	c-10.257,10.265-23.69,17.345-38.694,19.656c3.498,0.539,7.082,0.821,10.731,0.821c19.299,0,36.777-7.819,49.425-20.477
	c12.648-12.639,20.467-30.116,20.467-49.415v-63.456L449.662,170.462L449.662,170.462z"/>
<g>
	<path style="fill:#475D6D;" d="M436.666,264.368c-2.038,0-4.068-0.825-5.548-2.451c-4.632-5.089-11.234-8.007-18.115-8.007
		s-13.483,2.918-18.115,8.007c-2.789,3.063-7.533,3.285-10.595,0.497c-3.063-2.788-3.286-7.531-0.498-10.595
		c7.468-8.204,18.114-12.909,29.208-12.909s21.739,4.705,29.208,12.909c2.788,3.063,2.565,7.807-0.498,10.595
		C440.275,263.723,438.467,264.368,436.666,264.368z"/>
	<path style="fill:#475D6D;" d="M446.352,213.988c-4.142,0-7.5-3.357-7.5-7.5v-2.921c0-4.143,3.358-7.5,7.5-7.5s7.5,3.357,7.5,7.5
		v2.921C453.852,210.631,450.494,213.988,446.352,213.988z"/>
	<path style="fill:#475D6D;" d="M379.653,213.988c-4.142,0-7.5-3.357-7.5-7.5v-2.921c0-4.143,3.358-7.5,7.5-7.5s7.5,3.357,7.5,7.5
		v2.921C387.153,210.631,383.795,213.988,379.653,213.988z"/>
</g>
<path style="fill:#F9DC6A;" d="M512,103.822v33.417c0,18.354-14.868,33.223-33.223,33.223H350.756c-3.447,0-6.232,2.785-6.232,6.232
	v3.982c0,9.172-5.394,17.088-13.194,20.73c-0.974,0.467-1.986,0.857-3.028,1.168c-2.113,0.652-4.352,0.993-6.67,0.993h-8.267
	v-65.014c0-12.064,9.036-22.2,21.012-23.583L502.75,95.575C507.677,95.01,512,98.866,512,103.822z"/>
<path style="fill:#E5AC51;" d="M502.75,95.575l-15.974,1.84c1.845,1.515,3.043,3.805,3.043,6.407v33.417
	c0,18.354-14.868,33.223-33.223,33.223h22.182c18.354,0,33.223-14.868,33.223-33.223v-33.417
	C512,98.866,507.677,95.01,502.75,95.575z"/>
<path style="fill:#75DC5E;" d="M200.414,416.482H54.197v-47.428c0-30.091,24.394-54.485,54.485-54.485h37.246
	c30.091,0,54.485,24.394,54.485,54.485v47.428H200.414z"/>
<path style="fill:#2AAD52;" d="M145.928,314.569h-18.674c27.603,0,49.98,22.377,49.98,49.98v51.933h23.179v-47.429
	C200.414,338.963,176.02,314.569,145.928,314.569z"/>
<path style="fill:#F2A077;" d="M127.305,342.316L127.305,342.316c15.635,0,28.31-12.675,28.31-28.309v-49.099H98.996v49.099
	C98.996,329.641,111.67,342.316,127.305,342.316z"/>
<path style="fill:#FFCCAA;" d="M204.963,214.035v7.39c0,6.329-5.131,11.46-11.46,11.46H180.66v1.032
	c0,38.597-31.285,69.892-69.892,69.892c-19.308,0-36.776-7.819-49.425-20.477c-12.648-12.639-20.477-30.116-20.477-49.415v-63.456
	h120.378c3.437,0,6.232,2.785,6.232,6.222v3.982c0,9.172,5.394,17.088,13.184,20.74c0.974,0.467,1.986,0.857,3.038,1.168
	c2.113,0.652,4.352,0.993,6.67,0.993h7.79C202.169,205.349,204.963,209.361,204.963,214.035z"/>
<path style="fill:#F2A077;" d="M198.157,203.567h-7.79c-2.317,0-4.557-0.341-6.67-0.993c-1.052-0.312-2.064-0.701-3.038-1.169
	c-7.79-3.651-13.184-11.568-13.184-20.74v-3.982c0-3.437-2.795-6.222-6.232-6.222h-20.604c3.437,0,6.232,2.785,6.232,6.222v3.982
	c0,9.172,5.394,17.088,13.184,20.74c0.974,0.467,0,31.479,0,31.479v1.032c0,35.098-25.872,64.15-59.592,69.131
	c3.363,0.496,6.802,0.761,10.304,0.761c38.607,0,69.892-31.295,69.892-69.892v-1.032h12.843c6.329,0,11.46-5.131,11.46-11.46v-7.39
	C204.963,209.361,202.169,205.349,198.157,203.567z"/>
<g>
	<path style="fill:#475D6D;" d="M122.659,264.365c-2.038,0-4.068-0.825-5.548-2.451c-4.632-5.089-11.234-8.007-18.115-8.007
		s-13.483,2.918-18.115,8.007c-2.789,3.063-7.533,3.285-10.595,0.497c-3.063-2.788-3.286-7.531-0.498-10.595
		c7.468-8.204,18.114-12.909,29.208-12.909s21.739,4.705,29.208,12.909c2.788,3.063,2.565,7.807-0.498,10.595
		C126.268,263.72,124.46,264.365,122.659,264.365z"/>
	<path style="fill:#475D6D;" d="M65.646,213.985c-4.142,0-7.5-3.357-7.5-7.5v-2.921c0-4.143,3.358-7.5,7.5-7.5s7.5,3.357,7.5,7.5
		v2.921C73.146,210.628,69.789,213.985,65.646,213.985z"/>
	<path style="fill:#475D6D;" d="M132.345,213.985c-4.142,0-7.5-3.357-7.5-7.5v-2.921c0-4.143,3.358-7.5,7.5-7.5s7.5,3.357,7.5,7.5
		v2.921C139.845,210.628,136.487,213.985,132.345,213.985z"/>
	<path style="fill:#475D6D;" d="M198.634,153.325v50.243h-8.267c-2.317,0-4.557-0.341-6.67-0.993
		c-1.052-0.312-2.064-0.701-3.038-1.168c-7.79-3.651-13.184-11.568-13.184-20.74v-3.982c0-3.437-2.795-6.222-6.232-6.222H36.163
		C16.193,170.462,0,154.269,0,134.289c0-19.971,16.193-36.163,36.163-36.163h49.094c13.398,0,26.007,6.339,34.002,17.098
		l3.661,4.927h42.541C183.775,120.151,198.634,135.009,198.634,153.325z"/>
</g>
<g>
	<path style="fill:#2C3F4F;" d="M97.882,115.224l3.661,4.927h21.376l-3.661-4.927c-7.994-10.759-20.603-17.098-34.002-17.098H63.881
		C77.279,98.126,89.888,104.465,97.882,115.224z"/>
	<path style="fill:#2C3F4F;" d="M165.46,120.151h-21.376c18.315,0,33.174,14.859,33.174,33.174v46.096
		c1.073,0.752,2.205,1.425,3.402,1.985c0.974,0.467,1.986,0.857,3.038,1.169c2.113,0.652,4.352,0.993,6.67,0.993h8.267v-50.243
		C198.634,135.009,183.776,120.151,165.46,120.151z"/>
</g>
<g>
	<path style="fill:#8BA7BC;" d="M284.508,347.843c-2.333,0-4.632-1.085-6.097-3.124l-12.362-17.203
		c-1.879-2.615-1.879-6.139,0-8.754l9.217-12.826l-9.216-12.823c-1.879-2.615-1.879-6.139,0-8.754l9.216-12.823l-9.216-12.823
		c-1.879-2.615-1.879-6.139,0-8.754l12.362-17.199c2.417-3.364,7.104-4.13,10.468-1.713c3.363,2.417,4.13,7.104,1.713,10.467
		l-9.216,12.822l9.216,12.823c1.879,2.615,1.879,6.139,0,8.754l-9.216,12.823l9.216,12.823c1.879,2.615,1.879,6.139,0,8.754
		l-9.217,12.826l9.217,12.826c2.417,3.364,1.649,8.051-1.714,10.468C287.553,347.384,286.023,347.843,284.508,347.843z"/>
	<path style="fill:#8BA7BC;" d="M227.492,347.843c-1.516,0-3.045-0.458-4.37-1.41c-3.364-2.417-4.131-7.104-1.714-10.468
		l9.217-12.826l-9.217-12.826c-1.879-2.615-1.879-6.139,0-8.754l9.216-12.823l-9.216-12.823c-1.879-2.615-1.879-6.139,0-8.754
		l9.216-12.823l-9.216-12.822c-2.417-3.363-1.65-8.05,1.713-10.467c3.364-2.417,8.05-1.65,10.468,1.713l12.362,17.199
		c1.879,2.615,1.879,6.139,0,8.754l-9.216,12.823l9.216,12.823c1.879,2.615,1.879,6.139,0,8.754l-9.216,12.823l9.217,12.826
		c1.879,2.615,1.879,6.139,0,8.754l-12.362,17.203C232.124,346.757,229.825,347.842,227.492,347.843z"/>
</g>
<g>
</g>
<g>
</g>
<g>
</g>
<g>
</g>
<g>
</g>
<g>
</g>
<g>
</g>
<g>
</g>
<g>
</g>
<g>
</g>
<g>
</g>
<g>
</g>
<g>
</g>
<g>
</g>
<g>
</g>
</svg>
