<svg id="Layer_1" enable-background="new 0 0 256 256" height="512" viewBox="0 0 256 256" width="512" xmlns="http://www.w3.org/2000/svg"><path d="m125 116c-13.25 0-24 10.75-24 24v84h-12.86v-24h-15.846c-4.028 0-7.294-3.266-7.294-7.294v-16.706c0-33.14 26.86-60 60-60z" fill="#ef7f72"/><path d="m125 116c13.255 0 24 10.745 24 24v84h36v-48c0-33.137-26.863-60-60-60z" fill="#e8383b"/><path d="m125 116c-13.255 0-24 10.745-24 24v84h48v-84c0-13.255-10.745-24-24-24z" fill="#e95947"/><path d="m161 227c-1.657 0-3-1.343-3-3v-62.03c0-1.657 1.343-3 3-3s3 1.343 3 3v62.03c0 1.657-1.343 3-3 3z" fill="#1c2d6b"/><path d="m125 227c-1.657 0-3-1.343-3-3v-48c0-1.657 1.343-3 3-3s3 1.343 3 3v48c0 1.657-1.343 3-3 3z" fill="#1c2d6b"/><circle cx="137" cy="200" fill="#1c2d6b" r="3.941"/><circle cx="137" cy="214" fill="#1c2d6b" r="3.941"/><path d="m185 227h-96.86c-1.657 0-3-1.343-3-3v-24c0-1.657 1.343-3 3-3s3 1.343 3 3v21h90.86v-45c0-31.43-25.57-57-57-57s-57 25.57-57 57v6.059c0 1.657-1.343 3-3 3s-3-1.343-3-3v-6.059c0-34.738 28.262-63 63-63s63 28.262 63 63v48c0 1.657-1.343 3-3 3z" fill="#1c2d6b"/><path d="m99.29 203h-27.686c-5.296 0-9.604-4.309-9.604-9.604v-11.337c0-1.657 1.343-3 3-3s3 1.343 3 3v11.337c0 1.987 1.617 3.604 3.604 3.604h24.686v-14.941c0-1.657 1.343-3 3-3s3 1.343 3 3v17.941c0 1.657-1.343 3-3 3z" fill="#1c2d6b"/><path d="m106.677 182h-7.387v18h7.387c2.761 0 5-2.239 5-5v-8c0-2.761-2.238-5-5-5z" fill="#eee045"/><path d="m106.677 203h-7.387c-1.657 0-3-1.343-3-3v-18c0-1.657 1.343-3 3-3h7.387c4.411 0 8 3.589 8 8v8c0 4.411-3.589 8-8 8zm-4.387-6h4.387c1.103 0 2-.897 2-2v-8c0-1.103-.897-2-2-2h-4.387z" fill="#1c2d6b"/><path d="m107 124.497 18 51.503-5.6-51.503z" fill="#89aadb"/><path d="m130.6 124.497-5.6 51.503 18-51.503z" fill="#4b67b0"/><path d="m119.4 124.497 5.6 51.503 5.6-51.503z" fill="#6287c5"/><path d="m125 179c-1.275 0-2.411-.806-2.832-2.01l-18-51.502c-.547-1.564.278-3.275 1.842-3.822 1.568-.545 3.275.278 3.822 1.842l15.168 43.399 15.168-43.399c.547-1.564 2.255-2.387 3.822-1.842 1.563.547 2.389 2.258 1.842 3.822l-18 51.502c-.421 1.204-1.557 2.01-2.832 2.01z" fill="#1c2d6b"/><path d="m144.412 146.632h-9.335c-.326 0-.639-.027-.87-.076l-4.131-1.176c-.448.12-1.138.199-1.921.199h-6.308c-.784 0-1.474-.079-1.921-.199l-4.131 1.176c-.231.048-.544.076-.87.076h-9.335c-.68 0-1.231-.116-1.231-.258v7.279c0 .68.551 1.231 1.231 1.231h9.335c.326 0 .639-.13.87-.36l4.131-5.606c.448.574 1.138.949 1.921.949h6.308c.784 0 1.474-.375 1.921-.949l4.131 5.606c.231.231.544.36.87.36h9.335c.68 0 1.231-.551 1.231-1.231v-7.279c-.001.142-.552.258-1.231.258z" fill="#d3ba2a"/><path d="m144.412 134h-9.335c-.326 0-.639.13-.87.36l-4.082 5.314c-.445-.609-1.159-1.009-1.971-1.009h-6.308c-.812 0-1.526.4-1.971 1.009l-4.082-5.314c-.231-.231-.544-.36-.87-.36h-9.335c-.68 0-1.231.551-1.231 1.231v7.279c0-.143.551-.258 1.231-.258h9.335c.326 0 .639.027.87.076l4.082 1.115c.445-.128 1.159-.212 1.971-.212h6.308c.812 0 1.526.084 1.971.212l4.082-1.115c.231-.048.544-.076.87-.076h9.335c.68 0 1.231.116 1.231.258v-7.279c-.001-.68-.552-1.231-1.231-1.231z" fill="#ede49d"/><path d="m144.412 142.252h-9.335c-.326 0-.639.027-.87.076l-4.082 1.115c-.445-.128-1.159-.212-1.971-.212h-6.308c-.812 0-1.526.084-1.971.212l-4.082-1.115c-.231-.048-.544-.076-.87-.076h-9.335c-.68 0-1.231.116-1.231.258v3.864c0 .143.551.258 1.231.258h9.335c.326 0 .639-.027.87-.076l4.131-1.176c.448.12 1.138.199 1.921.199h6.308c.784 0 1.474-.079 1.921-.199l4.131 1.176c.231.048.544.076.87.076h9.335c.68 0 1.231-.116 1.231-.258v-3.864c.001-.143-.55-.258-1.229-.258z" fill="#eee045"/><path d="m114.92 157.88h-9.33c-2.332 0-4.229-1.897-4.229-4.23v-18.42c0-2.333 1.897-4.23 4.229-4.23h9.33c1.129 0 2.19.439 2.989 1.236.093.093.18.191.26.296l4.08 5.31c.772 1.005.826 2.381.151 3.439v5.951c.713 1.046.693 2.438-.066 3.468l-4.13 5.6c-.089.122-.188.236-.295.343-.799.798-1.86 1.237-2.989 1.237zm-7.56-6h6.649l2.499-3.389c-.071-.352-.108-.711-.108-1.071v-6.31c0-.31.027-.621.081-.926l-2.446-3.184h-6.675z" fill="#1c2d6b"/><path d="m144.41 157.88h-9.33c-1.129 0-2.19-.439-2.989-1.236-.106-.107-.206-.221-.295-.343l-4.13-5.6c-.76-1.03-.779-2.422-.066-3.468v-5.951c-.675-1.058-.621-2.434.151-3.439l4.08-5.31c.08-.104.167-.203.26-.296.799-.797 1.86-1.236 2.989-1.236h9.33c2.332 0 4.229 1.897 4.229 4.23v18.42c.001 2.331-1.897 4.229-4.229 4.229zm-8.42-6h6.649v-14.88h-6.675l-2.446 3.184c.054.306.081.616.081.926v6.31c0 .36-.037.719-.108 1.071z" fill="#1c2d6b"/><path d="m128.154 152.866h-6.309c-3.003 0-5.445-2.443-5.445-5.446v-6.308c0-3.003 2.442-5.446 5.445-5.446h6.309c3.003 0 5.445 2.443 5.445 5.446v6.308c.001 3.002-2.442 5.446-5.445 5.446zm-5.754-6h5.199v-5.2h-5.199z" fill="#1c2d6b"/><path d="m109 80c0-26.51 7.163-48 16-48-26.51 0-48 21.49-48 48s21.49 48 48 48c-8.837 0-16-21.49-16-48z" fill="#ede49d"/><path d="m125 32c8.837 0 16 21.49 16 48s-7.163 48-16 48c26.51 0 48-21.49 48-48s-21.49-48-48-48z" fill="#d3ba2a"/><ellipse cx="125" cy="80" fill="#eee045" rx="16" ry="48"/><path d="m125 32c-26.51 0-48 21.49-48 48 12.576 0 24.017-4.843 32.576-12.757 1.863-20.315 8.06-35.243 15.424-35.243z" fill="#a4d4a0"/><path d="m140.424 67.243c8.559 7.914 20 12.757 32.576 12.757 0-26.51-21.49-48-48-48 7.364 0 13.561 14.928 15.424 35.243z" fill="#419b46"/><path d="m125 32c0 13.933 5.942 26.474 15.424 35.243-1.863-20.315-8.06-35.243-15.424-35.243s-13.561 14.928-15.424 35.243c9.482-8.769 15.424-21.31 15.424-35.243z" fill="#65bc49"/><path d="m173 83c-22.073 0-40.915-14.095-48-33.757-7.085 19.662-25.927 33.757-48 33.757-1.657 0-3-1.343-3-3 0-28.122 22.879-51 51-51s51 22.878 51 51c0 1.657-1.343 3-3 3zm-44.894-47.894c1.529 22.345 19.443 40.258 41.787 41.788-1.529-22.345-19.443-40.258-41.787-41.788zm-6.212 0c-22.344 1.53-40.258 19.443-41.787 41.788 22.343-1.53 40.257-19.443 41.787-41.788z" fill="#1c2d6b"/><path d="m125 131c-28.121 0-51-22.878-51-51s22.879-51 51-51 51 22.878 51 51-22.879 51-51 51zm0-96c-24.813 0-45 20.187-45 45s20.187 45 45 45 45-20.187 45-45-20.187-45-45-45z" fill="#1c2d6b"/><circle cx="137" cy="186" fill="#1c2d6b" r="3.941"/><path d="m96.14 56v-12l15.999-12-42 12v12c0 48 30 72 42 72-4.571 0-15.999-24-15.999-72z" fill="#89aadb"/><path d="m112.139 32 15.999 12v12c0 48-11.428 72-15.999 72 12 0 42-24 42-72v-12z" fill="#4b67b0"/><path d="m128.137 56v-12l-15.999-12-15.998 12v12c0 48 11.428 72 15.999 72 4.571 0 15.998-24 15.998-72z" fill="#6287c5"/><g fill="#1c2d6b"><path d="m112.139 131c-6.72 0-17.952-5.937-27.9-19.2-7.801-10.401-17.1-28.525-17.1-55.8v-12c0-1.339.888-2.517 2.176-2.885l42-12c.539-.153 1.109-.153 1.648 0l42 12c1.288.368 2.176 1.545 2.176 2.885v12c0 27.275-9.299 45.399-17.1 55.8-9.948 13.263-21.181 19.2-27.9 19.2zm-39-84.737v9.737c0 25.622 8.646 42.529 15.9 52.2 8.184 10.912 18.01 16.8 23.1 16.8s14.916-5.888 23.1-16.8c7.254-9.671 15.9-26.579 15.9-52.2v-9.737l-39-11.143z"/><circle cx="96.137" cy="80.943" r="3.941"/><circle cx="128.137" cy="80.943" r="3.941"/><path d="m117.217 98h-11.08c-1.657 0-3-1.343-3-3s1.343-3 3-3h11.08c1.657 0 3 1.343 3 3s-1.343 3-3 3z"/><path d="m136.137 68h-12c-1.657 0-3-1.343-3-3s1.343-3 3-3h12c1.657 0 3 1.343 3 3s-1.343 3-3 3z"/><path d="m100.137 68h-12c-1.657 0-3-1.343-3-3s1.343-3 3-3h12c1.657 0 3 1.343 3 3s-1.343 3-3 3z"/><path d="m111.677 193.999c-1.657 0-3-1.343-3-3v-62.999c0-1.657 1.343-3 3-3s3 1.343 3 3v62.999c0 1.656-1.343 3-3 3z"/><path d="m99.29 185.059h-10.952c-1.657 0-3-1.343-3-3s1.343-3 3-3h10.952c1.657 0 3 1.343 3 3s-1.343 3-3 3z"/></g><path d="m180.088 212.251v11.749h10.912v-6.749c0-2.761-2.239-5-5-5z" fill="#d3ba2a"/><path d="m161 212.251h10.912v11.749h-10.912z" fill="#ede49d"/><path d="m171.912 212.251h8.176v11.749h-8.176z" fill="#eee045"/><path d="m191 227h-30c-1.657 0-3-1.343-3-3v-11.749c0-1.657 1.343-3 3-3h25c4.411 0 8 3.589 8 8v6.749c0 1.657-1.343 3-3 3zm-27-6h24v-3.749c0-1.103-.897-2-2-2h-22z" fill="#1c2d6b"/></svg>